<svg xmlns="http://www.w3.org/2000/svg" viewBox="0 0 493.89 643.51"><g id="Livello_2" data-name="Livello 2"><g id="Livello_1-2" data-name="Livello 1"><path d="M2.31,12.31H32.16V167.06H57.82V12.31H86.63V167.06h25.66V12.31h29.85V166q0,14.4-7.72,22t-22.65,7.59H98.67q-10.2,0-17-4.71T71.44,176.22h-.78q-2.89,9.69-9.69,14.54a25.6,25.6,0,0,1-15.19,4.84H32.69Q17.77,195.6,10,188T2.31,166Z"/><path d="M166.49,75.67q0-29.58,29.06-29.59h23q14.93,0,22,7.21t7.07,21.6v50.27H195.55v46.35h23.57V142.18h27v24.09q0,14.67-6.68,21.74t-21.6,7.07H195.55q-15.18,0-22.12-6.81t-6.94-22.78Zm29.06,27.5h23.57V69.91H195.55Z"/><path d="M300.82,165.75h40.06l-5.24,28.54h-65.2v-182h30.38Z"/><path d="M352.14,0H383.3V29.06H352.14Zm30.37,46.87V194.29H352.92V46.87Z"/><path d="M404.5,138.26h27.76v34.82h22.25v-22a14.18,14.18,0,0,0-1.31-6.81,12.69,12.69,0,0,0-3.92-4.19L418.9,119.93q-14.4-9.69-14.4-24.36V75.67q0-29.58,29.07-29.59h20.16q14.92,0,22,7.21t7.07,21.6v25.4H455V68.08H432.78V88.77a14.14,14.14,0,0,0,1.31,6.8,13.44,13.44,0,0,0,4.45,4.46l29.33,19.63a37.92,37.92,0,0,1,11.26,11.39,28.47,28.47,0,0,1,3.66,14.8v19.64q0,29.59-29.06,29.59H433.57q-14.93,0-22-7.2t-7.07-21.61Z"/><text/><path d="M94.65,244.28V643.51H493.89V244.28ZM446,595.58H142.59V292.21H446Z"/><rect y="244.27" width="47.33" height="399.24"/><path d="M288.32,497.09l3.17-172.61,21.63.9s14.73,34.2,24.42,41.85,52.43,39.86,44.88,92c-3.37,23.21-18.48,38.64-31.73,47.79,1.29-18.6,30.36-68.69-41.45-114.52-.52,27-1.91,144.57-1.91,144.57S291.18,564,260.77,567.56c-4.34,0-40.65,4.78-45.87-39.62-1.91-16.28,13.32-39.77,36.37-39.44C268.05,487.18,288.32,497.09,288.32,497.09Z"/></g></g></svg>